<svg xmlns="http://www.w3.org/2000/svg" xmlns:xlink="http://www.w3.org/1999/xlink" width="100" zoomAndPan="magnify" viewBox="0 0 375 187.499995" height="50" preserveAspectRatio="xMidYMid meet" version="1.0"><defs><g/><clipPath id="93cda874d8"><path d="M 0.5 0 L 195 0 L 195 150 L 0.5 150 Z M 0.5 0 " clip-rule="nonzero"/></clipPath></defs><g fill="#001c4a" fill-opacity="1"><g transform="translate(10.156515, 149.464554)"><g><path d="M 62.609375 -53.9375 L 98.953125 -53.9375 L 98.953125 -10.21875 C 93.554688 -6.28125 87.800781 -3.394531 81.6875 -1.5625 C 75.582031 0.257812 69.128906 1.171875 62.328125 1.171875 C 53.617188 1.171875 45.734375 -0.175781 38.671875 -2.875 C 31.617188 -5.582031 25.585938 -9.34375 20.578125 -14.15625 C 15.566406 -18.96875 11.695312 -24.679688 8.96875 -31.296875 C 6.25 -37.921875 4.890625 -45.148438 4.890625 -52.984375 C 4.890625 -60.910156 6.191406 -68.179688 8.796875 -74.796875 C 11.398438 -81.410156 15.109375 -87.101562 19.921875 -91.875 C 24.734375 -96.644531 30.554688 -100.367188 37.390625 -103.046875 C 44.234375 -105.722656 51.890625 -107.0625 60.359375 -107.0625 C 64.734375 -107.0625 68.816406 -106.707031 72.609375 -106 C 76.398438 -105.289062 79.898438 -104.316406 83.109375 -103.078125 C 86.328125 -101.835938 89.273438 -100.363281 91.953125 -98.65625 C 94.628906 -96.957031 97.0625 -95.085938 99.25 -93.046875 L 92.90625 -83.265625 C 91.925781 -81.710938 90.65625 -80.765625 89.09375 -80.421875 C 87.539062 -80.078125 85.84375 -80.46875 84 -81.59375 C 82.25 -82.65625 80.53125 -83.613281 78.84375 -84.46875 C 77.164062 -85.320312 75.378906 -86.0625 73.484375 -86.6875 C 71.585938 -87.320312 69.519531 -87.8125 67.28125 -88.15625 C 65.039062 -88.5 62.460938 -88.671875 59.546875 -88.671875 C 54.628906 -88.671875 50.175781 -87.816406 46.1875 -86.109375 C 42.195312 -84.410156 38.800781 -82.003906 36 -78.890625 C 33.207031 -75.773438 31.054688 -72.023438 29.546875 -67.640625 C 28.046875 -63.265625 27.296875 -58.378906 27.296875 -52.984375 C 27.296875 -47.140625 28.117188 -41.921875 29.765625 -37.328125 C 31.421875 -32.734375 33.757812 -28.851562 36.78125 -25.6875 C 39.800781 -22.519531 43.414062 -20.109375 47.625 -18.453125 C 51.832031 -16.804688 56.515625 -15.984375 61.671875 -15.984375 C 65.171875 -15.984375 68.296875 -16.332031 71.046875 -17.03125 C 73.796875 -17.738281 76.484375 -18.703125 79.109375 -19.921875 L 79.109375 -37.734375 L 67.140625 -37.734375 C 65.722656 -37.734375 64.613281 -38.109375 63.8125 -38.859375 C 63.007812 -39.609375 62.609375 -40.570312 62.609375 -41.75 Z M 62.609375 -53.9375 "/></g></g></g><g fill="#001c4a" fill-opacity="1"><g transform="translate(118.386059, 149.464554)"><g><path d="M 33.125 0 L 11.09375 0 L 11.09375 -105.890625 L 33.125 -105.890625 Z M 33.125 0 "/></g></g></g><g fill="#001c4a" fill-opacity="1"><g transform="translate(165.093365, 149.464554)"><g><path d="M 44.21875 -55.75 C 47.769531 -55.75 50.832031 -56.195312 53.40625 -57.09375 C 55.988281 -58 58.109375 -59.242188 59.765625 -60.828125 C 61.421875 -62.410156 62.632812 -64.269531 63.40625 -66.40625 C 64.1875 -68.550781 64.578125 -70.890625 64.578125 -73.421875 C 64.578125 -78.429688 62.910156 -82.320312 59.578125 -85.09375 C 56.253906 -87.863281 51.1875 -89.25 44.375 -89.25 L 32.984375 -89.25 L 32.984375 -55.75 Z M 95.53125 0 L 75.75 0 C 72.050781 0 69.375 -1.410156 67.71875 -4.234375 L 47.578125 -36.703125 C 46.753906 -37.972656 45.84375 -38.898438 44.84375 -39.484375 C 43.84375 -40.066406 42.367188 -40.359375 40.421875 -40.359375 L 32.984375 -40.359375 L 32.984375 0 L 11.09375 0 L 11.09375 -105.890625 L 44.375 -105.890625 C 51.769531 -105.890625 58.09375 -105.125 63.34375 -103.59375 C 68.59375 -102.0625 72.894531 -99.929688 76.25 -97.203125 C 79.613281 -94.484375 82.070312 -91.238281 83.625 -87.46875 C 85.1875 -83.695312 85.96875 -79.546875 85.96875 -75.015625 C 85.96875 -71.515625 85.46875 -68.195312 84.46875 -65.0625 C 83.46875 -61.925781 82.019531 -59.066406 80.125 -56.484375 C 78.226562 -53.898438 75.894531 -51.609375 73.125 -49.609375 C 70.351562 -47.617188 67.191406 -46.019531 63.640625 -44.8125 C 65.046875 -44.03125 66.359375 -43.09375 67.578125 -42 C 68.796875 -40.90625 69.890625 -39.601562 70.859375 -38.09375 Z M 95.53125 0 "/></g></g></g><g fill="#001c4a" fill-opacity="1"><g transform="translate(262.375891, 149.464554)"><g><path d="M 67 -40.203125 L 55.53125 -72.609375 C 54.851562 -74.316406 54.132812 -76.3125 53.375 -78.59375 C 52.625 -80.882812 51.910156 -83.367188 51.234375 -86.046875 C 50.546875 -83.316406 49.828125 -80.796875 49.078125 -78.484375 C 48.328125 -76.171875 47.609375 -74.164062 46.921875 -72.46875 L 35.546875 -40.203125 Z M 103.765625 0 L 86.765625 0 C 84.867188 0 83.320312 -0.445312 82.125 -1.34375 C 80.9375 -2.25 80.050781 -3.40625 79.46875 -4.8125 L 72.3125 -25.03125 L 30.140625 -25.03125 L 22.984375 -4.8125 C 22.503906 -3.59375 21.65625 -2.484375 20.4375 -1.484375 C 19.21875 -0.492188 17.679688 0 15.828125 0 L -1.3125 0 L 40.0625 -105.890625 L 62.46875 -105.890625 Z M 103.765625 0 "/></g></g></g><g clip-path="url(#93cda874d8)"><path stroke-linecap="round" transform="matrix(0.318589, 0.122263, -0.122263, 0.318589, 80.320625, 45.240199)" fill="none" stroke-linejoin="miter" d="M 22.000777 21.995201 L 99.015163 22.001364 " stroke="#001c4a" stroke-width="44" stroke-opacity="1" stroke-miterlimit="4"/></g><path stroke-linecap="round" transform="matrix(14.0179, 5.37957, -5.37957, 14.0179, 119.687501, 68.388989)" fill="none" stroke-linejoin="round" d="M -2.500052 -1.499919 L -0.499929 -0.0000262441 L -2.499905 1.500094 " stroke="#001c4a" stroke-width="1" stroke-opacity="1" stroke-miterlimit="4"/></svg>